<?xml version="1.0" encoding="UTF-8" standalone="no"?>
<svg
   width="1200"
   height="1200"
   viewBox="0 0 1200 1200"
   version="1.1"
   xml:space="preserve"
   style="clip-rule:evenodd;fill-rule:evenodd;stroke-linejoin:round;stroke-miterlimit:1.41421"
   id="svg10"
   sodipodi:docname="rust-netlink_logo.svg"
   inkscape:version="1.3.2 (091e20ef0f, 2023-11-25, custom)"
   inkscape:export-filename="rust-netlink_logo.png"
   inkscape:export-xdpi="96"
   inkscape:export-ydpi="96"
   xmlns:inkscape="http://www.inkscape.org/namespaces/inkscape"
   xmlns:sodipodi="http://sodipodi.sourceforge.net/DTD/sodipodi-0.dtd"
   xmlns="http://www.w3.org/2000/svg"
   xmlns:svg="http://www.w3.org/2000/svg"
   xmlns:serif="http://www.serif.com/"><defs
   id="defs10" /><sodipodi:namedview
   id="namedview10"
   pagecolor="#505050"
   bordercolor="#ffffff"
   borderopacity="1"
   inkscape:showpageshadow="0"
   inkscape:pageopacity="0"
   inkscape:pagecheckerboard="1"
   inkscape:deskcolor="#505050"
   inkscape:zoom="0.77870134"
   inkscape:cx="-125.85056"
   inkscape:cy="855.27013"
   inkscape:window-width="3840"
   inkscape:window-height="2060"
   inkscape:window-x="2160"
   inkscape:window-y="46"
   inkscape:window-maximized="1"
   inkscape:current-layer="svg10" />
    <g
   id="Layer-1"
   serif:id="Layer 1"
   transform="translate(-0.5196685,208.09989)">
        <g
   transform="translate(654.172,668.359)"
   id="g1">
            <path
   d="m 0,-322.648 c -114.597,0 -218.172,13.779 -296.172,36.229 v -5.071 c -78,25.095 -127.681,59.959 -127.681,98.506 0,6.077 1.345,12.062 3.703,17.931 l -7.984,14.321 c 0,0 -6.413,8.359 4.935,25.999 10.01,15.554 60.164,76.438 86.628,108.32 11.367,16.348 19.083,26.413 19.757,25.44 1.061,-1.543 -7.064,-32.229 -29.639,-67.242 -10.533,-18.805 -23.358,-43.719 -30.908,-62.12 21.081,13.342 49.189,25.445 81.189,35.861 v -0.159 c 78,22.453 181.575,36.229 296.172,36.229 131.156,0 248.828,-18.046 327.828,-46.491 V -276.153 C 248.828,-304.6 131.156,-322.648 0,-322.648"
   style="fill:#a52b00;fill-rule:nonzero"
   id="path1" />
        </g>
        <g
   transform="translate(1099.87,554.94)"
   id="g2">
            <path
   d="m 0,-50.399 -13.433,-27.828 c 0.071,-1.056 0.124,-2.114 0.124,-3.175 0,-31.548 -32.805,-60.62 -87.997,-83.901 V 2.499 c 25.751,-10.864 46.645,-22.984 61.586,-36.037 -4.398,17.683 -19.437,53.455 -31.428,78.611 -19.707,35.981 -26.845,67.303 -25.929,68.853 0.584,0.978 7.307,-9.393 17.222,-26.2 C -56.783,54.85 -13.063,-7.914 -4.325,-23.901 5.574,-42.024 0,-50.399 0,-50.399"
   style="fill:#a52b00;fill-rule:nonzero"
   id="path2" />
        </g>
        <g
   transform="translate(1177.87,277.21)"
   id="g3">
            <path
   d="m 0,227.175 -88.296,-65.043 c -0.83,-2.895 -1.66,-5.787 -2.516,-8.658 l 29.002,-42.016 c 2.961,-4.274 3.558,-9.829 1.635,-14.703 -1.925,-4.85 -6.136,-8.327 -11.117,-9.179 l -49.043,-8.321 c -1.898,-3.879 -3.89,-7.698 -5.889,-11.484 l 20.604,-47.172 c 2.119,-4.806 1.673,-10.39 -1.139,-14.751 -2.797,-4.383 -7.551,-6.942 -12.617,-6.743 l -49.77,1.809 c -2.577,-3.356 -5.194,-6.68 -7.866,-9.946 l 11.438,-50.56 c 1.159,-5.132 -0.302,-10.508 -3.879,-14.238 -3.555,-3.716 -8.722,-5.254 -13.636,-4.05 l -48.478,11.919 c -3.14,-2.775 -6.33,-5.513 -9.559,-8.196 l 1.745,-51.907 c 0.188,-5.254 -2.262,-10.247 -6.468,-13.163 -4.204,-2.934 -9.54,-3.376 -14.138,-1.196 l -45.226,21.502 c -3.64,-2.09 -7.302,-4.16 -11.005,-6.163 l -7.991,-51.148 c -0.812,-5.181 -4.146,-9.584 -8.815,-11.594 -4.655,-2.022 -9.99,-1.367 -14.077,1.71 l -40.321,30.253 c -3.97,-1.318 -7.958,-2.583 -11.996,-3.792 l -17.38,-48.504 c -1.766,-4.945 -5.842,-8.576 -10.81,-9.597 -4.953,-1.012 -10.048,0.703 -13.483,4.539 l -33.938,37.971 c -4.104,-0.471 -8.21,-0.901 -12.327,-1.259 l -26.208,-44.154 c -2.656,-4.472 -7.344,-7.193 -12.397,-7.193 -5.041,0 -9.739,2.721 -12.372,7.193 l -26.214,44.154 c -4.119,0.358 -8.244,0.788 -12.341,1.259 l -33.943,-37.971 c -3.437,-3.836 -8.551,-5.551 -13.487,-4.539 -4.966,1.035 -9.045,4.652 -10.806,9.597 l -17.393,48.504 c -4.027,1.209 -8.017,2.482 -11.997,3.792 l -40.308,-30.253 c -4.098,-3.088 -9.432,-3.741 -14.098,-1.71 -4.65,2.01 -7.997,6.413 -8.803,11.594 l -7.997,51.148 c -3.7,2.003 -7.363,4.062 -11.014,6.163 l -45.222,-21.502 c -4.592,-2.189 -9.952,-1.738 -14.135,1.196 -4.201,2.916 -6.656,7.909 -6.466,13.163 l 1.736,51.907 c -3.219,2.683 -6.403,5.421 -9.558,8.196 l -48.47,-11.919 c -4.925,-1.195 -10.086,0.334 -13.65,4.05 -3.585,3.73 -5.039,9.106 -3.885,14.238 l 11.415,50.56 c -2.649,3.279 -5.27,6.59 -7.839,9.946 l -49.771,-1.809 c -5.023,-0.148 -9.817,2.36 -12.623,6.743 -2.812,4.361 -3.237,9.945 -1.146,14.751 l 20.619,47.172 c -2.003,3.786 -3.992,7.605 -5.906,11.484 l -49.04,8.321 c -4.982,0.841 -9.183,4.316 -11.12,9.179 -1.925,4.874 -1.3,10.429 1.639,14.703 l 29.01,42.016 c -0.224,0.741 -0.43,1.49 -0.653,2.233 l -82.021,87.122 c 0,0 -12.56,9.851 5.73,33.002 16.14,20.421 98.993,101.376 142.752,143.789 18.483,21.532 31.143,34.866 32.466,33.712 2.088,-1.832 -8.871,-41.006 -45.275,-86.97 -28.06,-41.239 -64.478,-104.666 -55.939,-111.977 0,0 9.714,-12.331 29.204,-21.207 0.713,0.571 -0.737,-0.565 0,0 0,0 411.314,189.736 792.846,3.21 43.584,-7.817 69.968,15.529 69.968,15.529 9.099,5.276 -14.463,70.495 -33.838,113.666 -26.353,49.023 -30.217,87.276 -27.982,88.602 1.409,0.842 10.998,-13.747 24.674,-36.966 C -75.469,370.196 -11.675,280.554 0,258.781 13.239,234.094 0,227.175 0,227.175"
   style="fill:#f74c00;fill-rule:nonzero"
   id="path3" />
        </g>
        <g
   transform="translate(795.856,464.937)"
   id="g4">
            <path
   d="m 0,159.631 c 1.575,-1.342 2.4,-2.139 2.4,-2.139 L -132.25,144.985 C -22.348,0 65.618,116.967 74.988,129.879 v 29.752 z"
   style="fill-rule:nonzero"
   id="path4" />
        </g>
        <g
   transform="translate(278.418,211.791)"
   id="g5">
            <path
   d="m 0,253.04 c 0,0 -111.096,-43.25 -129.876,-89.798 0,0 130.391,-103.717 -25.621,-213.886 l -4.229,140.417 c 0,0 -46.226,-44.594 -44.186,-122.683 0,0 -143.773,69.178 24.476,191.577 0,0 5.676,65.698 156.977,145.017 z"
   style="fill:#f74c00;fill-rule:nonzero"
   id="path5" />
        </g>
        <g
   transform="translate(729.948,492.523)"
   id="g6">
            <path
   d="m 0,-87.016 c 0,0 41.104,-45.009 82.21,0 0,0 32.297,60.013 0,90.016 0,0 -52.85,42.009 -82.21,0 0,0 -35.232,-33.006 0,-90.016"
   style="fill-rule:nonzero"
   id="path6" />
        </g>
        <g
   transform="translate(777.536,422.196)"
   id="g7">
            <path
   d="m 0,0.008 c 0,17.523 -10.329,31.73 -23.07,31.73 -12.739,0 -23.069,-14.207 -23.069,-31.73 0,-17.529 10.33,-31.738 23.069,-31.738 12.741,0 23.07,14.209 23.07,31.738"
   style="fill:#ffffff;fill-rule:nonzero"
   id="path7" />
        </g>
        <g
   transform="translate(546.49,486.263)"
   id="g8">
            <path
   d="m 0,-93.046 c 0,0 70.508,-31.219 89.753,38.463 0,0 20.159,81.218 -57.902,85.802 0,0 -99.541,-19.172 -31.851,-124.265"
   style="fill-rule:nonzero"
   id="path8" />
        </g>
        <g
   transform="translate(581.903,423.351)"
   id="g9">
            <path
   d="m 0,0.002 c 0,18.072 -10.653,32.729 -23.794,32.729 -13.137,0 -23.792,-14.657 -23.792,-32.729 0,-18.078 10.655,-32.731 23.792,-32.731 C -10.653,-32.729 0,-18.076 0,0.002"
   style="fill:#ffffff;fill-rule:nonzero"
   id="path9" />
        </g>
        <g
   transform="translate(1002.23,778.679)"
   id="g10">
            <path
   d="m 0,-296.808 c 0,0 -14.723,58.643 -106.292,120.267 l -25.678,6.018 c 0,0 -83.066,-151.481 -200.749,19.221 0,0 36.677,-21.354 135,4.65 0,0 -45.23,69.226 -136.342,67.099 0,0 87.313,104.749 220.18,-46.554 0,0 140.455,-54.315 151.845,-170.701 z"
   style="fill:#f74c00;fill-rule:nonzero"
   id="path10" />
        </g>
    </g><path
   style="fill:#0000ff;fill-opacity:1;stroke-width:0.492735"
   d="M 127.23182,644.95826 C 97.894233,642.02631 71.914653,629.81501 51.483733,609.35402 23.342124,581.171 11.526824,543.20888 18.921624,504.7332 c 4.37363,-22.75636 16.228179,-45.72876 34.522749,-66.90019 4.37493,-5.06289 21.72567,-21.87724 24.53086,-23.77251 l 1.6377,-1.10648 v 14.70515 14.70515 l -4.15721,4.9621 c -15.09626,18.01908 -23.75034,37.6538 -26.04655,59.09555 -2.64652,24.71289 5.73772,51.45803 22.15389,70.66936 4.70015,5.50045 13.7152,13.41849 19.45814,17.09037 8.6695,5.54305 18.051937,9.37251 27.978877,11.41964 5.98043,1.23328 22.07196,1.22928 28.13591,-0.007 12.69304,-2.58777 26.04942,-8.75246 37.03689,-17.09453 1.94005,-1.47295 6.19679,-5.18094 9.45948,-8.24001 l 5.93212,-5.56192 -10.3385,-9.89368 -10.33848,-9.89368 4.53012,-6.50225 c 2.49156,-3.57622 4.70259,-6.5572 4.9134,-6.62439 0.21081,-0.0672 5.48072,4.75541 11.7109,10.71687 l 11.3276,10.83905 4.41965,-4.20631 4.41964,-4.20632 -12.34876,-11.81447 -12.34875,-11.81449 4.34566,-6.2603 c 2.39011,-3.44318 4.54905,-6.47095 4.79766,-6.7284 0.28054,-0.29057 5.56265,4.41604 13.92752,12.41008 l 13.47554,12.87816 4.52125,-4.34317 4.52127,-4.34319 -14.47598,-13.84866 -14.47596,-13.84864 4.59556,-6.60999 4.59556,-6.61 15.5953,14.55991 c 8.57744,8.00795 15.75156,14.61531 15.94251,14.68302 0.19096,0.0678 2.26769,-1.72279 4.61499,-3.97892 l 4.26783,-4.10203 -16.57274,-15.85164 -16.57271,-15.85166 4.41634,-6.54871 c 2.42901,-3.60179 4.66697,-6.54869 4.97328,-6.54869 0.30629,0 8.44557,7.5315 18.08726,16.73666 l 17.53036,16.73667 4.40304,-4.21003 4.40305,-4.21003 -18.59371,-17.78348 -18.59374,-17.78347 3.84207,-5.70443 c 2.11316,-3.1374 9.51444,-13.83026 16.44731,-23.7619 l 12.60519,-18.05748 6.66489,-4.96592 6.66488,-4.96589 21.81327,20.85289 21.81331,20.8529 -17.00342,16.26329 -17.00345,16.26332 14.60692,13.9728 c 8.0338,7.68508 14.83389,13.97283 15.11131,13.97283 0.27741,0 8.04544,-7.20804 17.26228,-16.01791 l 16.75789,-16.0179 21.91946,20.9544 c 12.05571,11.52495 21.91947,21.07882 21.91947,21.23087 0,0.15205 -2.32425,3.12012 -5.165,6.59577 l -5.16501,6.31936 -24.31696,15.44924 c -13.37433,8.49707 -24.48428,15.44922 -24.68874,15.44922 -0.20449,0 -8.70445,-7.96517 -18.88878,-17.70036 l -18.51697,-17.70039 -4.54309,4.32379 -4.54304,4.32376 17.64056,16.87227 c 9.70232,9.27972 17.64058,17.01347 17.64058,17.18608 0,0.39399 -13.26183,8.59468 -13.89897,8.59468 -0.25744,0 -7.8335,-7.045 -16.83563,-15.65555 l -16.36753,-15.65557 -4.41937,4.20607 -4.41935,4.20606 15.69313,15.01085 15.69313,15.01082 -6.93924,4.44073 -6.93923,4.44074 -14.54135,-13.89769 -14.54137,-13.89769 -4.54234,4.32308 -4.54233,4.32308 13.64861,13.05676 13.6486,13.05674 -6.9683,4.37065 -6.96834,4.37064 -12.47169,-11.87638 -12.4717,-11.87636 -4.40522,4.21209 -4.40519,4.2121 11.52763,11.0301 11.52764,11.03012 -6.85709,4.38814 c -3.77138,2.41348 -7.03109,4.38815 -7.24381,4.38815 -0.21269,0 -4.93885,-4.34869 -10.50257,-9.66374 l -10.11582,-9.66374 -5.25774,4.97339 c -21.58372,20.41655 -44.67719,32.3469 -70.76514,36.55817 -5.84405,0.94337 -21.31167,1.59831 -26.20297,1.1095 z"
   id="path1443"
   sodipodi:nodetypes="ssssscccsssssssscccssscccccssscccccccssscccssscccccsscccccccssscssscssscccsssscccccccccccccccccccccssscssss" />
<path
   style="fill:#0000ff;fill-opacity:1;stroke-width:0.492735"
   d="m 19.510738,362.66243 -2.74507,-2.65773 14.72778,-14.08213 14.72776,-14.08215 2.8953,2.76837 2.89529,2.76834 -14.60561,13.97153 c -8.03304,7.68432 -14.72816,13.9715 -14.87798,13.9715 -0.14988,0 -1.5077,-1.19597 -3.01747,-2.65773 z"
   id="path20" /><path
   style="fill:#0000ff;fill-opacity:1;stroke-width:0.492735"
   d="m 19.648468,374.1103 -2.8828,-2.78551 10.95475,-10.35406 c 6.02514,-5.69473 12.71373,-11.97442 14.8636,-13.9549 l 3.90883,-3.60083 2.76676,2.64545 2.76674,2.64546 -14.74751,14.09495 -14.74756,14.09494 z"
   id="path19" /><path
   style="fill:#0000ff;fill-opacity:1;stroke-width:0.492735"
   d="m 19.519928,385.27846 -2.75426,-2.68695 14.86514,-13.90442 14.86515,-13.90444 2.76713,2.61985 2.76708,2.61984 -14.60559,13.97151 c -8.03305,7.68435 -14.72815,13.97153 -14.87799,13.97153 -0.14988,0 -1.51183,-1.20913 -3.02666,-2.68692 z"
   id="path18" /><path
   style="fill:#0000ff;fill-opacity:1;stroke-width:0.492735"
   d="m 19.400968,396.52134 -2.6353,-2.55144 14.74311,-14.09073 14.74315,-14.09073 2.71297,2.62666 2.71295,2.62665 -14.22574,13.88221 c -7.82418,7.63521 -14.49355,13.94221 -14.82082,14.01552 -0.32728,0.0733 -1.78093,-1.01483 -3.23032,-2.41814 z"
   id="path17" /><path
   style="fill:#0000ff;fill-opacity:1;stroke-width:0.492735"
   d="m 19.519928,407.45059 -2.75426,-2.67818 14.61322,-13.68031 c 8.03725,-7.52419 14.80013,-13.69074 15.0286,-13.70347 0.22843,-0.0128 1.58899,1.05329 3.02341,2.36893 l 2.60803,2.39206 -14.60995,13.98958 c -8.03546,7.69425 -14.73253,13.98957 -14.88236,13.98957 -0.14989,0 -1.51182,-1.2052 -3.02669,-2.67818 z"
   id="path16" /><path
   style="fill:#0000ff;fill-opacity:1;stroke-width:0.492735"
   d="m 19.657428,419.41956 -2.89176,-2.8033 14.78969,-14.13523 14.78968,-14.13523 2.46333,2.50776 c 1.35482,1.37927 2.53926,2.70399 2.63209,2.94384 0.0928,0.23984 -6.36975,6.73369 -14.36126,14.43079 l -14.52999,13.99469 z"
   id="path15" /><path
   style="fill:#0000ff;fill-opacity:1;stroke-width:0.492735"
   d="m 34.145728,423.37777 -17.38006,-16.62336 47.8671,-45.77058 47.867122,-45.77061 5.79398,5.53998 5.79399,5.53998 -16.87528,16.14087 -16.875262,16.14087 5.91852,5.65906 5.918532,5.65905 -25.021942,23.92859 -25.02192,23.92857 4.38829,7.1147 4.38828,7.11472 -4.17288,4.01077 c -2.2951,2.20595 -4.40586,4.01078 -4.69066,4.01078 -0.28476,0 -8.3388,-7.48052 -17.89781,-16.62339 z"
   id="path14"
   sodipodi:nodetypes="scccccccccccccsss" /><path
   style="fill:#0000ff;fill-opacity:1;stroke-width:0.492735"
   d="m 25.451158,480.83118 -8.68549,-8.31491 20.40664,-19.50756 c 11.22365,-10.72916 20.40662,-19.70553 20.40662,-19.94748 0,-0.24193 -1.94247,-3.4799 -4.31662,-7.19545 l -4.31663,-6.75555 22.58103,-21.59508 c 12.41956,-11.87729 22.80977,-21.59511 23.08935,-21.59511 0.27958,0 9.690232,8.78141 20.912592,19.51422 l 20.40423,19.51419 -20.75689,21.75923 -22.756852,21.75926 -9.45104,-4.19535 -7.45107,-4.19535 -20.43512,19.53492 c -11.23933,10.74422 -20.54993,19.53493 -20.69021,19.53493 -0.14028,0 -4.16354,-3.7417 -8.94054,-8.31491 z"
   id="path12"
   sodipodi:nodetypes="scssscssscccccsss" /><path
   style="display:inline;fill:#0000ff;fill-opacity:1;stroke-width:0.492735"
   d="m 34.392668,485.29562 -17.627,-16.85941 4.26513,-4.09945 c 2.34583,-2.2547 4.46027,-4.09945 4.69879,-4.09945 0.2385,0 3.64487,1.84188 7.56968,4.09307 l 9.13601,4.09307 25.06621,-23.96318 23.06619,-23.96319 6.05239,5.77196 6.052352,5.77198 16.75506,-16.01517 c 9.21524,-8.80834 16.88749,-16.01515 17.04936,-16.01515 0.16188,0 2.8209,2.43917 5.90887,5.42039 l 5.61456,5.42038 -47.73464,45.65179 c -26.254082,25.10848 -47.849732,45.65179 -47.990332,45.65179 -0.14058,0 -8.18778,-7.58674 -17.88263,-16.85943 z"
   id="path11"
   sodipodi:nodetypes="scssscccccssscsss"
   inkscape:export-filename="./path11.png"
   inkscape:export-xdpi="96"
   inkscape:export-ydpi="96" /></svg>
